# File produced by Open Asset Import Library (http://www.assimp.sf.net)
# (assimp v3.2.202087883)

mtllib model_normalized.mtl

# 49 vertex positions
v 0.222338 0.024885 -0.222338
v 0.068549 -0.081092 -0.253834
v 0.081885 0.024885 -0.303216
v 0.186127 -0.081092 -0.186127
v -0.080510 0.024885 -0.302848
v 0.247102 0.184278 -0.247103
v 0.303216 0.024885 -0.081884
v 0.143744 -0.118220 -0.143744
v -0.067398 -0.081092 -0.253525
v -0.089477 0.184278 -0.336580
v 0.091005 0.184278 -0.336990
v 0.336989 0.184278 -0.091005
v 0.253834 -0.081092 -0.068549
v 0.052939 -0.118220 -0.196033
v -0.221332 0.024885 -0.221332
v -0.245984 0.184278 -0.245985
v 0.253525 -0.081092 0.067399
v 0.302847 0.024885 0.080510
v 0.000000 -0.118220 -0.000000
v 0.196033 -0.118220 -0.052940
v -0.052051 -0.118220 -0.195795
v -0.185285 -0.081092 -0.185285
v 0.336581 0.184278 0.089478
v -0.302849 0.024885 -0.080510
v -0.336580 0.184278 -0.089477
v 0.185285 -0.081092 0.185286
v 0.195795 -0.118220 0.052050
v 0.221332 0.024885 0.221333
v -0.143094 -0.118220 -0.143094
v -0.253525 -0.081092 -0.067398
v 0.245985 0.184278 0.245985
v -0.195796 -0.118220 -0.052051
v 0.143094 -0.118220 0.143093
v -0.303217 0.024885 0.081885
v -0.336989 0.184278 0.091004
v 0.067398 -0.081092 0.253526
v 0.080510 0.024885 0.302848
v -0.196034 -0.118220 0.052939
v 0.052051 -0.118220 0.195795
v -0.253834 -0.081092 0.068548
v 0.089478 0.184278 0.336581
v -0.143744 -0.118220 0.143744
v -0.052939 -0.118220 0.196033
v -0.222339 0.024885 0.222338
v -0.247103 0.184278 0.247102
v -0.068548 -0.081092 0.253833
v -0.081884 0.024885 0.303216
v -0.186127 -0.081092 0.186126
v -0.091005 0.184278 0.336990

# 0 UV coordinates

# 98 vertex normals
vn 0.016971 -0.00831461 -0.016971
vn 0.00484233 -0.0170401 -0.0182029
vn 0.00617242 -0.00830636 -0.0231963
vn 0.0133132 -0.0170493 -0.0133132
vn -0.00617242 0.00830636 0.0231963
vn -0.00484233 0.0170401 0.0182029
vn -0.016971 0.00831461 0.016971
vn -0.0133132 0.0170493 0.0133132
vn -0.00625406 -0.00828992 -0.0231802
vn 0.00625406 0.00828992 0.0231802
vn 0.017542 -0.00545102 -0.017542
vn -0.017542 0.00545102 0.017542
vn 0.0231963 -0.00830636 -0.00617242
vn -0.0231963 0.00830636 0.00617242
vn 0.00489232 -0.0244395 -0.00489232
vn -0.00489232 0.0244395 0.00489232
vn -0.00491214 -0.0170217 -0.0182014
vn 0.00491214 0.0170217 0.0182014
vn -0.00646282 -0.00543334 -0.0239556
vn 0.00646282 0.00543334 0.0239556
vn 0.00638011 -0.0054451 -0.0239751
vn -0.00638011 0.0054451 0.0239751
vn 0.0239751 -0.0054451 -0.00638011
vn -0.0239751 0.0054451 0.00638011
vn 0.0182029 -0.0170401 -0.00484233
vn -0.0182029 0.0170401 0.00484233
vn 0.00177971 -0.0244377 -0.00669248
vn -0.00177971 0.0244377 0.00669248
vn -0.016979 -0.00828175 -0.016979
vn 0.016979 0.00828175 0.016979
vn -0.0175457 -0.00542747 -0.0175457
vn 0.0175457 0.00542747 0.0175457
vn 0.0182014 -0.0170217 0.00491214
vn -0.0182014 0.0170217 -0.00491214
vn 0.0231802 -0.00828992 0.00625406
vn -0.0231802 0.00828992 -0.00625406
vn 0 -0.0254 0
vn 0 0.0254 0
vn 0.00669248 -0.0244377 -0.00177971
vn -0.00669248 0.0244377 0.00177971
vn -0.00180821 -0.0244342 -0.00669781
vn 0.00180821 0.0244342 0.00669781
vn -0.0133367 -0.0170125 -0.0133367
vn 0.0133367 0.0170125 0.0133367
vn 0.0239556 -0.00543334 0.00646282
vn -0.0239556 0.00543334 -0.00646282
vn -0.0231802 -0.00828992 -0.00625406
vn 0.0231802 0.00828992 0.00625406
vn -0.0239556 -0.00543334 -0.00646282
vn 0.0239556 0.00543334 0.00646282
vn 0.0133367 -0.0170125 0.0133367
vn -0.0133367 0.0170125 -0.0133367
vn 0.00669781 -0.0244342 0.00180821
vn -0.00669781 0.0244342 -0.00180821
vn 0.016979 -0.00828175 0.016979
vn -0.016979 0.00828175 -0.016979
vn -0.00491006 -0.0244324 -0.00491006
vn 0.00491006 0.0244324 0.00491006
vn -0.0182014 -0.0170217 -0.00491214
vn 0.0182014 0.0170217 0.00491214
vn 0.0175457 -0.00542747 0.0175457
vn -0.0175457 0.00542747 -0.0175457
vn -0.00669781 -0.0244342 -0.00180821
vn 0.00669781 0.0244342 0.00180821
vn 0.00491006 -0.0244324 0.00491006
vn -0.00491006 0.0244324 -0.00491006
vn -0.0231963 -0.00830636 0.00617242
vn 0.0231963 0.00830636 -0.00617242
vn -0.0239751 -0.0054451 0.00638011
vn 0.0239751 0.0054451 -0.00638011
vn 0.00491214 -0.0170217 0.0182014
vn -0.00491214 0.0170217 -0.0182014
vn 0.00625406 -0.00828992 0.0231802
vn -0.00625406 0.00828992 -0.0231802
vn -0.00669248 -0.0244377 0.00177971
vn 0.00669248 0.0244377 -0.00177971
vn 0.00180821 -0.0244342 0.00669781
vn -0.00180821 0.0244342 -0.00669781
vn -0.0182029 -0.0170401 0.00484233
vn 0.0182029 0.0170401 -0.00484233
vn 0.00646282 -0.00543334 0.0239556
vn -0.00646282 0.00543334 -0.0239556
vn -0.00489232 -0.0244395 0.00489232
vn 0.00489232 0.0244395 -0.00489232
vn -0.00177971 -0.0244377 0.00669248
vn 0.00177971 0.0244377 -0.00669248
vn -0.016971 -0.00831461 0.016971
vn 0.016971 0.00831461 -0.016971
vn -0.017542 -0.00545102 0.017542
vn 0.017542 0.00545102 -0.017542
vn -0.00484233 -0.0170401 0.0182029
vn 0.00484233 0.0170401 -0.0182029
vn -0.00617242 -0.00830636 0.0231963
vn 0.00617242 0.00830636 -0.0231963
vn -0.0133132 -0.0170493 0.0133132
vn 0.0133132 0.0170493 -0.0133132
vn -0.00638011 -0.0054451 0.0239751
vn 0.00638011 0.0054451 -0.0239751

# Mesh 'mesh1_mesh1-geometry' with 168 faces
g mesh1_mesh1-geometry
usemtl material_0_24
f  1//1 2//2 3//3
f  2//2 1//1 4//4
f  3//5 2//6 1//7
f  4//8 1//7 2//6
f  2//2 5//9 3//3
f  3//5 5//10 2//6
f  3//3 6//11 1//1
f  1//7 6//12 3//5
f  7//13 4//4 1//1
f  1//7 4//8 7//14
f  8//15 2//2 4//4
f  4//8 2//6 8//16
f  5//9 2//2 9//17
f  9//18 2//6 5//10
f  10//19 3//3 5//9
f  5//10 3//5 10//20
f  6//11 3//3 11//21
f  11//22 3//5 6//12
f  12//23 1//1 6//11
f  6//12 1//7 12//24
f  4//4 7//13 13//25
f  13//26 7//14 4//8
f  1//1 12//23 7//13
f  7//14 12//24 1//7
f  2//2 8//15 14//27
f  14//28 8//16 2//6
f  13//25 8//15 4//4
f  4//8 8//16 13//26
f  14//27 9//17 2//2
f  2//6 9//18 14//28
f  9//17 15//29 5//9
f  5//10 15//30 9//18
f  3//3 10//19 11//21
f  11//22 10//20 3//5
f  5//9 16//31 10//19
f  10//20 16//32 5//10
f  7//13 17//33 13//25
f  13//26 17//34 7//14
f  12//23 18//35 7//13
f  7//14 18//36 12//24
f  19//37 14//27 8//15
f  8//16 14//28 19//38
f  8//15 13//25 20//39
f  20//40 13//26 8//16
f  9//17 14//27 21//41
f  21//42 14//28 9//18
f  15//29 9//17 22//43
f  22//44 9//18 15//30
f  16//31 5//9 15//29
f  15//30 5//10 16//32
f  17//33 7//13 18//35
f  18//36 7//14 17//34
f  17//33 20//39 13//25
f  13//26 20//40 17//34
f  18//35 12//23 23//45
f  23//46 12//24 18//36
f  19//37 21//41 14//27
f  14//28 21//42 19//38
f  19//37 8//15 20//39
f  20//40 8//16 19//38
f  21//41 22//43 9//17
f  9//18 22//44 21//42
f  22//43 24//47 15//29
f  15//30 24//48 22//44
f  15//29 25//49 16//31
f  16//32 25//50 15//30
f  18//35 26//51 17//33
f  17//34 26//52 18//36
f  20//39 17//33 27//53
f  27//54 17//34 20//40
f  23//45 28//55 18//35
f  18//36 28//56 23//46
f  29//57 21//41 19//37
f  19//38 21//42 29//58
f  19//37 20//39 27//53
f  27//54 20//40 19//38
f  22//43 21//41 29//57
f  29//58 21//42 22//44
f  24//47 22//43 30//59
f  30//60 22//44 24//48
f  25//49 15//29 24//47
f  24//48 15//30 25//50
f  26//51 18//35 28//55
f  28//56 18//36 26//52
f  26//51 27//53 17//33
f  17//34 27//54 26//52
f  28//55 23//45 31//61
f  31//62 23//46 28//56
f  32//63 29//57 19//37
f  19//38 29//58 32//64
f  19//37 27//53 33//65
f  33//66 27//54 19//38
f  32//63 22//43 29//57
f  29//58 22//44 32//64
f  22//43 32//63 30//59
f  30//60 32//64 22//44
f  30//59 34//67 24//47
f  24//48 34//68 30//60
f  24//47 35//69 25//49
f  25//50 35//70 24//48
f  28//55 36//71 26//51
f  26//52 36//72 28//56
f  27//53 26//51 33//65
f  33//66 26//52 27//54
f  31//61 37//73 28//55
f  28//56 37//74 31//62
f  38//75 32//63 19//37
f  19//38 32//64 38//76
f  39//77 19//37 33//65
f  33//66 19//38 39//78
f  38//75 30//59 32//63
f  32//64 30//60 38//76
f  34//67 30//59 40//79
f  40//80 30//60 34//68
f  35//69 24//47 34//67
f  34//68 24//48 35//70
f  36//71 28//55 37//73
f  37//74 28//56 36//72
f  36//71 33//65 26//51
f  26//52 33//66 36//72
f  37//73 31//61 41//81
f  41//82 31//62 37//74
f  42//83 38//75 19//37
f  19//38 38//76 42//84
f  43//85 19//37 39//77
f  39//78 19//38 43//86
f  33//65 36//71 39//77
f  39//78 36//72 33//66
f  30//59 38//75 40//79
f  40//80 38//76 30//60
f  40//79 44//87 34//67
f  34//68 44//88 40//80
f  34//67 45//89 35//69
f  35//70 45//90 34//68
f  37//73 46//91 36//71
f  36//72 46//92 37//74
f  41//81 47//93 37//73
f  37//74 47//94 41//82
f  42//83 40//79 38//75
f  38//76 40//80 42//84
f  42//83 19//37 43//85
f  43//86 19//38 42//84
f  36//71 43//85 39//77
f  39//78 43//86 36//72
f  44//87 40//79 48//95
f  48//96 40//80 44//88
f  45//89 34//67 44//87
f  44//88 34//68 45//90
f  46//91 37//73 47//93
f  47//94 37//74 46//92
f  43//85 36//71 46//91
f  46//92 36//72 43//86
f  47//93 41//81 49//97
f  49//98 41//82 47//94
f  40//79 42//83 48//95
f  48//96 42//84 40//80
f  46//91 42//83 43//85
f  43//86 42//84 46//92
f  46//91 44//87 48//95
f  48//96 44//88 46//92
f  47//93 45//89 44//87
f  44//88 45//90 47//94
f  44//87 46//91 47//93
f  47//94 46//92 44//88
f  45//89 47//93 49//97
f  49//98 47//94 45//90
f  42//83 46//91 48//95
f  48//96 46//92 42//84

