# File produced by Open Asset Import Library (http://www.assimp.sf.net)
# (assimp v3.2.202087883)

mtllib model_normalized.mtl

# 94 vertex positions
v 0.222436 -0.129909 0.103079
v 0.229358 -0.129909 0.018077
v 0.232009 -0.129909 0.050655
v 0.227687 -0.129909 -0.002461
v 0.373780 0.080232 0.077242
v 0.352495 0.080232 0.165452
v 0.219190 -0.129909 -0.026256
v 0.359316 0.080232 -0.054813
v 0.372299 0.080232 0.018077
v 0.199619 -0.129909 0.151239
v 0.209766 -0.129909 -0.052648
v 0.355451 0.080232 -0.067916
v 0.371509 0.080232 -0.013474
v 0.187092 -0.129909 0.165987
v 0.199619 -0.129909 -0.067328
v 0.309104 0.080232 0.245149
v 0.345837 0.080232 -0.100509
v 0.187058 -0.129909 -0.085502
v 0.246565 0.080232 0.310900
v 0.330937 0.080232 -0.124887
v 0.165117 -0.129909 0.191853
v 0.298513 0.080232 -0.177935
v 0.179466 -0.129909 -0.096487
v 0.187092 0.080232 0.347251
v 0.172640 -0.129909 -0.102286
v 0.159275 0.080232 0.361134
v 0.138852 -0.129909 -0.130990
v 0.121278 0.080232 0.372341
v 0.169139 0.080232 0.358225
v 0.121278 -0.129909 0.222154
v 0.090691 -0.129909 -0.153806
v 0.071091 0.080232 0.384173
v 0.232762 0.080232 -0.240474
v 0.082103 0.080232 0.383897
v 0.017975 0.080232 0.385502
v 0.071091 -0.129909 0.240075
v 0.131666 -0.024838 -0.213507
v 0.038268 -0.129909 -0.163379
v 0.160891 0.050104 -0.256089
v 0.064854 0.080232 -0.305150
v -0.008611 0.080232 0.386167
v 0.017975 -0.129909 0.244396
v 0.172640 0.080232 -0.273208
v 0.131666 0.080232 -0.289029
v -0.014848 -0.129909 -0.159058
v 0.038268 0.080232 -0.304485
v 0.153066 0.080232 -0.283865
v -0.034450 -0.129909 0.234823
v -0.082610 -0.129909 0.212007
v -0.065036 -0.129909 -0.141136
v -0.014848 0.080232 -0.303155
v -0.096823 0.080232 0.364883
v -0.123224 -0.129909 0.177504
v -0.108875 -0.129909 -0.110836
v -0.025861 0.080232 -0.302879
v -0.136671 0.080232 0.343187
v -0.065036 0.080232 -0.291324
v -0.153524 -0.129909 0.133666
v -0.121272 -0.129909 -0.096244
v -0.112897 0.080232 -0.277207
v -0.176520 0.080232 0.321492
v -0.143378 -0.129909 -0.070222
v -0.193028 0.080232 0.305789
v -0.154881 -0.129909 -0.045941
v -0.164201 -0.010937 -0.164132
v -0.142423 0.080232 -0.259160
v -0.242271 0.080232 0.258952
v -0.171446 -0.129909 0.083479
v -0.203872 -0.024838 -0.105037
v -0.172179 0.034648 -0.200114
v -0.252862 0.080232 -0.164132
v -0.180157 0.080232 -0.236096
v -0.289595 0.080232 0.181526
v -0.315267 0.079854 0.082910
v -0.166193 -0.129909 -0.022062
v -0.305541 0.080232 -0.045941
v -0.217540 0.080232 -0.201268
v -0.226536 0.080232 -0.191811
v -0.304061 0.080232 0.132482
v -0.315559 0.080232 0.082818
v -0.315267 0.080232 0.094491
v -0.170912 -0.129909 0.003776
v -0.317538 0.080232 0.003776
v -0.296252 0.080232 -0.084435
v -0.185658 0.080232 -0.232735
v -0.199909 0.080232 -0.219805
v -0.311282 0.080232 0.108002
v -0.174697 -0.129909 0.043508
v -0.175767 -0.129909 0.030363
v -0.316744 0.080232 0.035490
v -0.188416 0.080232 -0.231048
v -0.182905 0.060604 -0.216650
v -0.191016 0.080232 -0.229154
v -0.190323 0.080232 -0.229883

# 0 UV coordinates

# 156 vertex normals
vn 0 -0.0254 0
vn 0 0.0254 0
vn -0.0211083 0.0140233 0.00171727
vn 0.0211083 -0.0140233 -0.00171727
vn 0.0208335 -0.0140233 0.00380446
vn -0.0208335 0.0140233 -0.00380446
vn 0.0212795 -0.0137603 -0.00173121
vn -0.0212795 0.0137603 0.00173121
vn -0.0209974 0.0142826 0.000525653
vn 0.0209974 -0.0142826 -0.000525653
vn -0.0203657 0.0143613 -0.00491419
vn 0.0203657 -0.0143613 0.00491419
vn 0.0189252 -0.0143741 0.00896564
vn -0.0189252 0.0143741 -0.00896564
vn 0.0198053 -0.0142441 -0.00707225
vn -0.0198053 0.0142441 0.00707225
vn 0.0202276 -0.0141565 -0.00596636
vn -0.0202276 0.0141565 0.00596636
vn -0.02004 0.0144436 0.00591104
vn 0.02004 -0.0144436 -0.00591104
vn 0.0166122 -0.0130396 0.0141125
vn -0.0166122 0.0130396 -0.0141125
vn -0.0183606 0.0144263 -0.00999642
vn 0.0183606 -0.0144263 0.00999642
vn -0.0200943 0.0143613 0.00592706
vn 0.0200943 -0.0143613 -0.00592706
vn 0.0152167 -0.0142874 0.0144735
vn -0.0152167 0.0142874 -0.0144735
vn 0.0173604 -0.014135 -0.011999
vn -0.0173604 0.014135 0.011999
vn -0.0179942 0.0141565 0.0109984
vn 0.0179942 -0.0141565 -0.0109984
vn 0.0172271 -0.0143741 -0.0119068
vn -0.0172271 0.0143741 0.0119068
vn 0.0161401 -0.0140233 0.0137115
vn -0.0161401 0.0140233 -0.0137115
vn -0.0179545 0.0142255 0.0109741
vn 0.0179545 -0.0142255 -0.0109741
vn -0.0109259 0.0143613 -0.0178756
vn 0.0109259 -0.0143613 0.0178756
vn 0.0137115 -0.0140233 -0.0161401
vn -0.0137115 0.0140233 0.0161401
vn 0.00925556 -0.014682 0.0185454
vn -0.00925556 0.014682 -0.0185454
vn 0.00570801 -0.0154301 0.0193517
vn -0.00570801 0.0154301 -0.0193517
vn 0.00961964 -0.011845 -0.0203056
vn -0.00961964 0.011845 0.0203056
vn 0.00457723 -0.0157221 0.0194171
vn -0.00457723 0.0157221 -0.0194171
vn 0.0129252 -0.0113311 0.0187004
vn -0.0129252 0.0113311 -0.0187004
vn -0.0139051 0.0154301 0.0146191
vn 0.0139051 -0.0154301 -0.0146191
vn -0.000504927 0.0154301 -0.0201697
vn 0.000504927 -0.0154301 0.0201697
vn -0.0100178 0.0143613 0.0183999
vn 0.0100178 -0.0143613 -0.0183999
vn -0.00743135 0.0125236 -0.0208109
vn 0.00743135 -0.0125236 0.0208109
vn -0.00603567 0.0139259 0.0203666
vn 0.00603567 -0.0139259 -0.0203666
vn -0.000524307 0.0143613 -0.0209437
vn 0.000524307 -0.0143613 0.0209437
vn 0.00376197 -0.0143741 -0.0206008
vn -0.00376197 0.0143741 0.0206008
vn -0.00759902 0.0141456 0.0196804
vn 0.00759902 -0.0141456 -0.0196804
vn -0.00488389 0.014548 0.0202401
vn 0.00488389 -0.014548 -0.0202401
vn 0.00171727 -0.0140233 0.0211083
vn -0.00171727 0.0140233 -0.0211083
vn -0.000527787 -0.0141565 -0.0210826
vn 0.000527787 0.0141565 0.0210826
vn -0.00457264 0.0162831 0.0189503
vn 0.00457264 -0.0162831 -0.0189503
vn -0.00376197 -0.0143741 0.0206008
vn 0.00376197 0.0143741 -0.0206008
vn -0.00171166 -0.0141273 -0.0210392
vn 0.00171166 0.0141273 0.0210392
vn -0.00933214 -0.0130396 0.0196987
vn 0.00933214 0.0130396 -0.0196987
vn 0.000524307 0.0143613 0.0209437
vn -0.000524307 -0.0143613 -0.0209437
vn 0.00482808 0.0148827 -0.0200089
vn -0.00482808 -0.0148827 0.0200089
vn -0.00717565 -0.0137793 -0.0200948
vn 0.00717565 0.0137793 0.0200948
vn -0.0141125 -0.0130396 0.0166122
vn 0.0141125 0.0130396 -0.0166122
vn 0.000504927 0.0154301 0.0201697
vn -0.000504927 -0.0154301 -0.0201697
vn 0.00984225 0.0148827 -0.0180775
vn -0.00984225 -0.0148827 0.0180775
vn -0.0124496 -0.0128734 -0.0180123
vn 0.0124496 0.0128734 0.0180123
vn 0.00592706 0.0143613 0.0200943
vn -0.00592706 -0.0143613 -0.0200943
vn -0.018682 -0.0113761 0.0129124
vn 0.018682 0.0113761 -0.0129124
vn 0.00570801 0.0154301 0.0193517
vn -0.00570801 -0.0154301 -0.0193517
vn -0.00931215 -0.0163065 0.0171039
vn 0.00931215 0.0163065 -0.0171039
vn -0.017124 -0.011845 -0.0145473
vn 0.017124 0.011845 0.0145473
vn 0.0141857 0.0148827 -0.0149142
vn -0.0141857 -0.0148827 0.0149142
vn -0.0162716 -0.0137591 -0.0138232
vn 0.0162716 0.0137591 0.0138232
vn -0.0107807 -0.0147593 -0.017638
vn 0.0107807 0.0147593 0.017638
vn -0.0191389 -0.0140233 -0.00906694
vn 0.0191389 0.0140233 0.00906694
vn -0.0147475 -0.0143417 -0.0148992
vn 0.0147475 0.0143417 0.0148992
vn 0.0179942 0.0141565 -0.0109984
vn -0.0179942 -0.0141565 0.0109984
vn -0.0201038 -0.0137645 0.00717885
vn 0.0201038 0.0137645 -0.00717885
vn -0.0194087 -0.013915 -0.00865073
vn 0.0194087 0.013915 0.00865073
vn -0.0142055 -0.0145217 -0.0152474
vn 0.0142055 0.0145217 0.0152474
vn -0.0150445 -0.0146306 -0.0143097
vn 0.0150445 0.0146306 0.0143097
vn 0.0200943 0.0143613 -0.00592706
vn -0.0200943 -0.0143613 0.00592706
vn 0.0201697 0.0154301 -0.000504927
vn -0.0201697 -0.0154301 0.000504927
vn -0.0196987 -0.0130396 -0.00933214
vn 0.0196987 0.0130396 0.00933214
vn 0.0184604 0.0142603 0.0100507
vn -0.0184604 -0.0142603 -0.0100507
vn 0.0191989 0.0159719 0.00463263
vn -0.0191989 -0.0159719 -0.00463263
vn 0.020257 0.0145232 0.00488795
vn -0.020257 -0.0145232 -0.00488795
vn -0.0105221 -0.0154301 -0.017215
vn 0.0105221 0.0154301 0.017215
vn -0.014805 -0.0150888 -0.0140819
vn 0.014805 0.0150888 0.0140819
vn -0.0209029 -0.0143296 0.00170056
vn 0.0209029 0.0143296 -0.00170056
vn -0.0208967 -0.0139258 -0.00381599
vn 0.0208967 0.0139258 0.00381599
vn -0.0205767 -0.0148827 0.000515112
vn 0.0205767 0.0148827 -0.000515112
vn -0.0213354 -0.0132204 -0.00389613
vn 0.0213354 0.0132204 0.00389613
vn 0.0208261 0.0145314 -0.00052136
vn -0.0208261 -0.0145314 0.00052136
vn -0.0119181 -0.0153463 -0.0163587
vn 0.0119181 0.0153463 0.0163587
vn -0.0104838 -0.0155257 -0.0171523
vn 0.0104838 0.0155257 0.0171523

# Mesh 'mesh1_mesh1-geometry' with 264 faces
g mesh1_mesh1-geometry
usemtl material_0_24
f  1//1 2//1 3//1
f  2//1 1//1 4//1
f  3//2 2//2 1//2
f  4//2 1//2 2//2
f  5//3 2//3 3//3
f  3//4 2//4 5//4
f  6//5 1//5 3//5
f  3//6 1//6 6//6
f  4//1 1//1 7//1
f  7//2 1//2 4//2
f  2//7 4//7 8//7
f  8//8 4//8 2//8
f  5//9 9//9 2//9
f  2//10 9//10 5//10
f  6//11 5//11 3//11
f  3//12 5//12 6//12
f  6//13 10//13 1//13
f  1//14 10//14 6//14
f  7//1 1//1 10//1
f  10//2 1//2 7//2
f  11//15 4//15 7//15
f  7//16 4//16 11//16
f  4//17 12//17 8//17
f  8//18 12//18 4//18
f  2//19 13//19 8//19
f  8//20 13//20 2//20
f  9//9 13//9 2//9
f  2//10 13//10 9//10
f  14//21 10//21 6//21
f  6//22 10//22 14//22
f  7//1 10//1 11//1
f  11//2 10//2 7//2
f  4//15 11//15 12//15
f  12//16 11//16 4//16
f  15//1 10//1 14//1
f  14//2 10//2 15//2
f  16//23 6//23 14//23
f  14//24 6//24 16//24
f  11//1 10//1 15//1
f  15//2 10//2 11//2
f  11//25 12//25 17//25
f  17//26 12//26 11//26
f  15//1 14//1 18//1
f  18//2 14//2 15//2
f  19//27 14//27 16//27
f  16//28 14//28 19//28
f  11//29 15//29 20//29
f  20//30 15//30 11//30
f  11//31 17//31 20//31
f  20//32 17//32 11//32
f  18//1 14//1 21//1
f  21//2 14//2 18//2
f  15//33 18//33 22//33
f  22//34 18//34 15//34
f  19//35 21//35 14//35
f  14//36 21//36 19//36
f  15//37 20//37 22//37
f  22//38 20//38 15//38
f  18//1 21//1 23//1
f  23//2 21//2 18//2
f  18//33 23//33 22//33
f  22//34 23//34 18//34
f  19//39 21//39 24//39
f  24//40 21//40 19//40
f  23//1 21//1 25//1
f  25//2 21//2 23//2
f  22//41 23//41 25//41
f  25//42 23//42 22//42
f  26//43 21//43 24//43
f  24//44 21//44 26//44
f  25//1 21//1 27//1
f  27//2 21//2 25//2
f  22//41 25//41 27//41
f  27//42 25//42 22//42
f  28//45 21//45 26//45
f  26//46 21//46 28//46
f  26//1 24//1 29//1
f  29//2 24//2 26//2
f  27//1 21//1 30//1
f  30//2 21//2 27//2
f  22//47 27//47 31//47
f  31//48 27//48 22//48
f  32//49 21//49 28//49
f  28//50 21//50 32//50
f  32//51 30//51 21//51
f  21//52 30//52 32//52
f  27//1 30//1 31//1
f  31//2 30//2 27//2
f  31//53 22//53 33//53
f  33//54 22//54 31//54
f  32//1 28//1 34//1
f  34//2 28//2 32//2
f  32//55 30//55 35//55
f  35//56 30//56 32//56
f  31//1 30//1 36//1
f  36//2 30//2 31//2
f  33//57 37//57 31//57
f  31//58 37//58 33//58
f  35//59 30//59 36//59
f  36//60 30//60 35//60
f  31//1 36//1 38//1
f  38//2 36//2 31//2
f  37//57 33//57 39//57
f  39//58 33//58 37//58
f  40//61 31//61 37//61
f  37//62 31//62 40//62
f  35//63 36//63 41//63
f  41//64 36//64 35//64
f  38//1 36//1 42//1
f  42//2 36//2 38//2
f  40//65 31//65 38//65
f  38//66 31//66 40//66
f  39//57 33//57 43//57
f  43//58 33//58 39//58
f  44//67 37//67 39//67
f  39//68 37//68 44//68
f  40//69 37//69 44//69
f  44//70 37//70 40//70
f  41//71 42//71 36//71
f  36//72 42//72 41//72
f  38//1 42//1 45//1
f  45//2 42//2 38//2
f  40//73 38//73 46//73
f  46//74 38//74 40//74
f  47//57 39//57 43//57
f  43//58 39//58 47//58
f  44//75 39//75 47//75
f  47//76 39//76 44//76
f  41//77 48//77 42//77
f  42//78 48//78 41//78
f  45//1 42//1 48//1
f  48//2 42//2 45//2
f  46//79 38//79 45//79
f  45//80 38//80 46//80
f  41//81 49//81 48//81
f  48//82 49//82 41//82
f  45//1 48//1 50//1
f  50//2 48//2 45//2
f  51//83 45//83 46//83
f  46//84 45//84 51//84
f  41//85 49//85 52//85
f  52//86 49//86 41//86
f  50//1 48//1 49//1
f  49//2 48//2 50//2
f  51//87 45//87 50//87
f  50//88 45//88 51//88
f  52//89 53//89 49//89
f  49//90 53//90 52//90
f  50//1 49//1 54//1
f  54//2 49//2 50//2
f  55//91 50//91 51//91
f  51//92 50//92 55//92
f  52//93 53//93 56//93
f  56//94 53//94 52//94
f  54//1 49//1 53//1
f  53//2 49//2 54//2
f  57//95 50//95 54//95
f  54//96 50//96 57//96
f  57//97 50//97 55//97
f  55//98 50//98 57//98
f  56//99 58//99 53//99
f  53//100 58//100 56//100
f  54//1 53//1 59//1
f  59//2 53//2 54//2
f  60//101 54//101 57//101
f  57//102 54//102 60//102
f  61//103 58//103 56//103
f  56//104 58//104 61//104
f  62//1 53//1 58//1
f  58//2 53//2 62//2
f  59//1 53//1 62//1
f  62//2 53//2 59//2
f  59//105 60//105 54//105
f  54//106 60//106 59//106
f  61//107 58//107 63//107
f  63//108 58//108 61//108
f  62//1 58//1 64//1
f  64//2 58//2 62//2
f  65//109 59//109 62//109
f  62//110 59//110 65//110
f  60//111 59//111 66//111
f  66//112 59//112 60//112
f  63//107 58//107 67//107
f  67//108 58//108 63//108
f  64//1 58//1 68//1
f  68//2 58//2 64//2
f  69//113 62//113 64//113
f  64//114 62//114 69//114
f  70//109 59//109 65//109
f  65//110 59//110 70//110
f  71//115 65//115 62//115
f  62//116 65//116 71//116
f  66//111 59//111 72//111
f  72//112 59//112 66//112
f  67//117 58//117 73//117
f  73//118 58//118 67//118
f  74//119 68//119 58//119
f  58//120 68//120 74//120
f  64//1 68//1 75//1
f  75//2 68//2 64//2
f  62//113 69//113 71//113
f  71//114 69//114 62//114
f  76//121 69//121 64//121
f  64//122 69//122 76//122
f  59//109 70//109 72//109
f  72//110 70//110 59//110
f  77//123 70//123 65//123
f  65//124 70//124 77//124
f  78//125 65//125 71//125
f  71//126 65//126 78//126
f  73//127 58//127 79//127
f  79//128 58//128 73//128
f  68//119 74//119 80//119
f  80//120 74//120 68//120
f  58//129 74//129 81//129
f  81//130 74//130 58//130
f  75//1 68//1 82//1
f  82//2 68//2 75//2
f  83//131 64//131 75//131
f  75//132 64//132 83//132
f  84//133 69//133 71//133
f  71//134 69//134 84//134
f  76//135 69//135 84//135
f  84//136 69//136 76//136
f  83//137 64//137 76//137
f  76//138 64//138 83//138
f  72//139 70//139 85//139
f  85//140 70//140 72//140
f  77//141 86//141 70//141
f  70//142 86//142 77//142
f  65//125 78//125 77//125
f  77//126 78//126 65//126
f  58//127 87//127 79//127
f  79//128 87//128 58//128
f  68//143 80//143 88//143
f  88//144 80//144 68//144
f  58//127 81//127 87//127
f  87//128 81//128 58//128
f  82//1 68//1 89//1
f  89//2 68//2 82//2
f  90//145 75//145 82//145
f  82//146 75//146 90//146
f  90//147 83//147 75//147
f  75//148 83//148 90//148
f  85//139 70//139 91//139
f  91//140 70//140 85//140
f  86//141 92//141 70//141
f  70//142 92//142 86//142
f  80//143 89//143 88//143
f  88//144 89//144 80//144
f  89//1 68//1 88//1
f  88//2 68//2 89//2
f  80//149 82//149 89//149
f  89//150 82//150 80//150
f  80//151 82//151 90//151
f  90//152 82//152 80//152
f  91//153 70//153 92//153
f  92//154 70//154 91//154
f  92//141 86//141 93//141
f  93//142 86//142 92//142
f  91//155 92//155 94//155
f  94//156 92//156 91//156
f  93//141 94//141 92//141
f  92//142 94//142 93//142

# Mesh 'mesh2_mesh2-geometry' with 131 faces
g mesh2_mesh2-geometry
usemtl material_0_0
l  75 82
l  64 75
l  83 75
l  90 75
l  82 89
l  90 82
l  82 80
l  62 64
l  64 76
l  69 64
l  64 83
l  89 88
l  80 89
l  68 80
l  80 88
l  59 62
l  62 71
l  65 62
l  76 69
l  71 69
l  69 84
l  88 68
l  68 58
l  54 59
l  60 59
l  66 59
l  59 72
l  71 65
l  65 77
l  70 65
l  58 53
l  56 58
l  73 58
l  58 79
l  58 87
l  58 81
l  58 67
l  63 58
l  61 58
l  74 58
l  50 54
l  57 54
l  54 60
l  72 70
l  77 70
l  86 70
l  85 70
l  70 91
l  92 70
l  53 49
l  53 56
l  53 52
l  45 50
l  51 50
l  50 57
l  50 55
l  91 92
l  93 92
l  92 94
l  49 48
l  49 41
l  52 49
l  38 45
l  46 45
l  45 51
l  48 42
l  41 48
l  41 42
l  41 36
l  31 38
l  40 38
l  46 38
l  42 36
l  36 30
l  36 35
l  27 31
l  22 31
l  31 33
l  31 37
l  31 40
l  40 37
l  30 21
l  30 35
l  30 32
l  22 27
l  25 27
l  15 22
l  22 25
l  22 18
l  22 23
l  37 39
l  37 44
l  21 14
l  32 21
l  21 28
l  26 21
l  21 24
l  21 19
l  28 32
l  23 25
l  11 15
l  15 18
l  20 15
l  18 23
l  39 43
l  44 39
l  47 39
l  14 10
l  19 14
l  16 14
l  14 6
l  24 26
l  7 11
l  12 11
l  20 11
l  11 17
l  10 1
l  6 10
l  6 1
l  6 3
l  4 7
l  4 12
l  1 3
l  3 2
l  3 5
l  2 4
l  8 4
l  2 5
l  2 9
l  2 13
l  2 8

