# File produced by Open Asset Import Library (http://www.assimp.sf.net)
# (assimp v3.2.202087883)

mtllib model_normalized.mtl

# 73 vertex positions
v 0.113754 -0.041146 -0.197028
v -0.000000 -0.081073 -0.131024
v -0.000000 -0.041146 -0.227508
v 0.065512 -0.081073 -0.113470
v -0.065512 -0.081073 -0.113470
v 0.151305 0.031399 -0.262069
v 0.155391 -0.041146 -0.155391
v -0.000000 -0.081073 0.000000
v -0.113754 -0.041146 -0.197028
v -0.089491 -0.081073 -0.089491
v -0.000000 0.031399 -0.302611
v 0.089491 -0.081073 -0.089491
v -0.155391 -0.041146 -0.155391
v -0.000000 0.126441 -0.345857
v 0.206687 0.031399 -0.206687
v -0.151306 0.031399 -0.262069
v 0.172929 0.126441 -0.299521
v -0.172929 0.126441 -0.299521
v -0.206687 0.031399 -0.206687
v 0.236225 0.126441 -0.236225
v -0.236225 0.126441 -0.236225
v 0.197028 -0.041146 0.113754
v 0.131024 -0.081073 0.000000
v 0.227508 -0.041146 0.000000
v 0.113470 -0.081073 0.065512
v 0.113470 -0.081073 -0.065512
v 0.262069 0.031399 0.151305
v 0.155391 -0.041146 0.155391
v 0.197028 -0.041146 -0.113754
v 0.089491 -0.081073 -0.089491
v 0.302611 0.031399 0.000000
v 0.089491 -0.081073 0.089491
v 0.155391 -0.041146 -0.155391
v 0.345857 0.126441 0.000000
v 0.206687 0.031399 0.206687
v 0.262069 0.031399 -0.151306
v 0.299521 0.126441 0.172929
v 0.299521 0.126441 -0.172929
v 0.236225 0.126441 0.236225
v -0.197028 -0.041146 -0.113754
v -0.131024 -0.081073 0.000000
v -0.227508 -0.041146 0.000000
v -0.113470 -0.081073 -0.065512
v -0.113470 -0.081073 0.065512
v -0.262069 0.031399 -0.151305
v -0.155391 -0.041146 -0.155391
v -0.197028 -0.041146 0.113754
v -0.089491 -0.081073 0.089491
v -0.302611 0.031399 0.000000
v -0.089491 -0.081073 -0.089491
v -0.155391 -0.041146 0.155391
v -0.345857 0.126441 0.000000
v -0.262069 0.031399 0.151306
v -0.299521 0.126441 -0.172929
v -0.299521 0.126441 0.172929
v -0.206687 0.031399 0.206687
v -0.236225 0.126441 0.236225
v -0.113754 -0.041146 0.197028
v -0.000000 -0.081073 0.131024
v -0.000000 -0.041146 0.227508
v -0.065512 -0.081073 0.113470
v 0.065512 -0.081073 0.113470
v -0.151305 0.031399 0.262069
v -0.155391 -0.041146 0.155391
v 0.113754 -0.041146 0.197028
v 0.089491 -0.081073 0.089491
v -0.000000 0.031399 0.302611
v -0.089491 -0.081073 0.089491
v 0.155391 -0.041146 0.155391
v -0.000000 0.126441 0.345857
v 0.151306 0.031399 0.262069
v -0.172929 0.126441 0.299521
v 0.172929 0.126441 0.299521

# 0 UV coordinates

# 130 vertex normals
vn 0.0069503 -0.0212587 -0.0120383
vn 0 -0.024534 -0.00657585
vn 0 -0.0212587 -0.0139006
vn 0.00328794 -0.024534 -0.00569486
vn 0 0.0212587 0.0139006
vn 0 0.024534 0.00657585
vn -0.0069503 0.0212587 0.0120383
vn -0.00328794 0.024534 0.00569486
vn -0.00328794 -0.024534 -0.00569486
vn 0.00328794 0.024534 0.00569486
vn 0.0103657 -0.0146755 -0.0179539
vn -0.0103657 0.0146755 0.0179539
vn 0.0100683 -0.0210338 -0.0100683
vn -0.0100683 0.0210338 0.0100683
vn 0 -0.0254 0
vn 0 0.0254 0
vn -0.0069503 -0.0212587 -0.0120383
vn 0.0069503 0.0212587 0.0120383
vn -0.00361015 -0.0248816 -0.00361015
vn 0.00361015 0.0248816 0.00361015
vn 0 -0.0146755 -0.0207314
vn 0 0.0146755 0.0207314
vn 0.00361015 -0.0248816 -0.00361015
vn -0.00361015 0.0248816 0.00361015
vn -0.0100683 -0.0210338 -0.0100683
vn 0.0100683 0.0210338 0.0100683
vn 0 -0.0105197 -0.0231192
vn 0 0.0105197 0.0231192
vn 0.014826 -0.0143366 -0.014826
vn -0.014826 0.0143366 0.014826
vn -0.0103657 -0.0146755 -0.0179539
vn 0.0103657 0.0146755 0.0179539
vn 0.0115596 -0.0105197 -0.0200218
vn -0.0115596 0.0105197 0.0200218
vn -0.0115596 -0.0105197 -0.0200218
vn 0.0115596 0.0105197 0.0200218
vn -0.014826 -0.0143366 -0.014826
vn 0.014826 0.0143366 0.014826
vn 0.0164425 -0.0102202 -0.0164425
vn -0.0164425 0.0102202 0.0164425
vn -0.0164425 -0.0102202 -0.0164425
vn 0.0164425 0.0102202 0.0164425
vn 0.0120383 -0.0212587 0.0069503
vn 0.00657585 -0.024534 0
vn 0.0139006 -0.0212587 0
vn 0.00569486 -0.024534 0.00328794
vn -0.0139006 0.0212587 0
vn -0.00657585 0.024534 0
vn -0.0120383 0.0212587 -0.0069503
vn -0.00569486 0.024534 -0.00328794
vn 0.00569486 -0.024534 -0.00328794
vn -0.00569486 0.024534 0.00328794
vn 0.0179539 -0.0146755 0.0103657
vn -0.0179539 0.0146755 -0.0103657
vn 0.0100683 -0.0210338 0.0100683
vn -0.0100683 0.0210338 -0.0100683
vn 0.0120383 -0.0212587 -0.0069503
vn -0.0120383 0.0212587 0.0069503
vn 0.0207314 -0.0146755 0
vn -0.0207314 0.0146755 0
vn 0.00361015 -0.0248816 0.00361015
vn -0.00361015 0.0248816 -0.00361015
vn 0.0231192 -0.0105197 0
vn -0.0231192 0.0105197 0
vn 0.014826 -0.0143366 0.014826
vn -0.014826 0.0143366 -0.014826
vn 0.0179539 -0.0146755 -0.0103657
vn -0.0179539 0.0146755 0.0103657
vn 0.0200218 -0.0105197 0.0115596
vn -0.0200218 0.0105197 -0.0115596
vn 0.0200218 -0.0105197 -0.0115596
vn -0.0200218 0.0105197 0.0115596
vn 0.0164425 -0.0102202 0.0164425
vn -0.0164425 0.0102202 -0.0164425
vn -0.0120383 -0.0212587 -0.0069503
vn -0.00657585 -0.024534 0
vn -0.0139006 -0.0212587 0
vn -0.00569486 -0.024534 -0.00328794
vn 0.0139006 0.0212587 0
vn 0.00657585 0.024534 0
vn 0.0120383 0.0212587 0.0069503
vn 0.00569486 0.024534 0.00328794
vn -0.00569486 -0.024534 0.00328794
vn 0.00569486 0.024534 -0.00328794
vn -0.0179539 -0.0146755 -0.0103657
vn 0.0179539 0.0146755 0.0103657
vn -0.0120383 -0.0212587 0.0069503
vn 0.0120383 0.0212587 -0.0069503
vn -0.00361015 -0.0248816 0.00361015
vn 0.00361015 0.0248816 -0.00361015
vn -0.0207314 -0.0146755 0
vn 0.0207314 0.0146755 0
vn -0.0100683 -0.0210338 0.0100683
vn 0.0100683 0.0210338 -0.0100683
vn -0.0231192 -0.0105197 0
vn 0.0231192 0.0105197 0
vn -0.0179539 -0.0146755 0.0103657
vn 0.0179539 0.0146755 -0.0103657
vn -0.0200218 -0.0105197 -0.0115596
vn 0.0200218 0.0105197 0.0115596
vn -0.0200218 -0.0105197 0.0115596
vn 0.0200218 0.0105197 -0.0115596
vn -0.014826 -0.0143366 0.014826
vn 0.014826 0.0143366 -0.014826
vn -0.0164425 -0.0102202 0.0164425
vn 0.0164425 0.0102202 -0.0164425
vn -0.0069503 -0.0212587 0.0120383
vn 0 -0.024534 0.00657585
vn 0 -0.0212587 0.0139006
vn -0.00328794 -0.024534 0.00569486
vn 0 0.0212587 -0.0139006
vn 0 0.024534 -0.00657585
vn 0.0069503 0.0212587 -0.0120383
vn 0.00328794 0.024534 -0.00569486
vn 0.00328794 -0.024534 0.00569486
vn -0.00328794 0.024534 -0.00569486
vn -0.0103657 -0.0146755 0.0179539
vn 0.0103657 0.0146755 -0.0179539
vn 0.0069503 -0.0212587 0.0120383
vn -0.0069503 0.0212587 -0.0120383
vn 0 -0.0146755 0.0207314
vn 0 0.0146755 -0.0207314
vn 0 -0.0105197 0.0231192
vn 0 0.0105197 -0.0231192
vn 0.0103657 -0.0146755 0.0179539
vn -0.0103657 0.0146755 -0.0179539
vn -0.0115596 -0.0105197 0.0200218
vn 0.0115596 0.0105197 -0.0200218
vn 0.0115596 -0.0105197 0.0200218
vn -0.0115596 0.0105197 -0.0200218

# Mesh 'mesh1_mesh1-geometry' with 56 faces
g mesh1_mesh1-geometry
usemtl material_0_24
f  1//1 2//2 3//3
f  2//2 1//1 4//4
f  3//5 2//6 1//7
f  4//8 1//7 2//6
f  5//9 3//3 2//2
f  2//6 3//5 5//10
f  3//3 6//11 1//1
f  1//7 6//12 3//5
f  7//13 4//4 1//1
f  1//7 4//8 7//14
f  8//15 2//2 4//4
f  4//8 2//6 8//16
f  3//3 5//9 9//17
f  9//18 5//10 3//5
f  2//2 10//19 5//9
f  5//10 10//20 2//6
f  6//11 3//3 11//21
f  11//22 3//5 6//12
f  6//11 7//13 1//1
f  1//7 7//14 6//12
f  4//4 7//13 12//23
f  12//24 7//14 4//8
f  10//19 2//2 8//15
f  8//16 2//6 10//20
f  8//15 4//4 12//23
f  12//24 4//8 8//16
f  5//9 13//25 9//17
f  9//18 13//26 5//10
f  9//17 11//21 3//3
f  3//5 11//22 9//18
f  13//25 5//9 10//19
f  10//20 5//10 13//26
f  14//27 6//11 11//21
f  11//22 6//12 14//28
f  7//13 6//11 15//29
f  15//30 6//12 7//14
f  13//25 16//31 9//17
f  9//18 16//32 13//26
f  11//21 9//17 16//31
f  16//32 9//18 11//22
f  6//11 14//27 17//33
f  17//34 14//28 6//12
f  11//21 18//35 14//27
f  14//28 18//36 11//22
f  17//33 15//29 6//11
f  6//12 15//30 17//34
f  16//31 13//25 19//37
f  19//38 13//26 16//32
f  18//35 11//21 16//31
f  16//32 11//22 18//36
f  15//29 17//33 20//39
f  20//40 17//34 15//30
f  19//37 18//35 16//31
f  16//32 18//36 19//38
f  18//35 19//37 21//41
f  21//42 19//38 18//36

# Mesh 'mesh1_mesh1-geometry' with 56 faces
g mesh1_mesh1-geometry
usemtl material_0_24
f  22//43 23//44 24//45
f  23//44 22//43 25//46
f  24//47 23//48 22//49
f  25//50 22//49 23//48
f  26//51 24//45 23//44
f  23//48 24//47 26//52
f  24//45 27//53 22//43
f  22//49 27//54 24//47
f  28//55 25//46 22//43
f  22//49 25//50 28//56
f  8//15 23//44 25//46
f  25//50 23//48 8//16
f  24//45 26//51 29//57
f  29//58 26//52 24//47
f  23//44 30//23 26//51
f  26//52 30//24 23//48
f  27//53 24//45 31//59
f  31//60 24//47 27//54
f  27//53 28//55 22//43
f  22//49 28//56 27//54
f  25//46 28//55 32//61
f  32//62 28//56 25//50
f  30//23 23//44 8//15
f  8//16 23//48 30//24
f  8//15 25//46 32//61
f  32//62 25//50 8//16
f  26//51 33//13 29//57
f  29//58 33//14 26//52
f  29//57 31//59 24//45
f  24//47 31//60 29//58
f  33//13 26//51 30//23
f  30//24 26//52 33//14
f  34//63 27//53 31//59
f  31//60 27//54 34//64
f  28//55 27//53 35//65
f  35//66 27//54 28//56
f  33//13 36//67 29//57
f  29//58 36//68 33//14
f  31//59 29//57 36//67
f  36//68 29//58 31//60
f  27//53 34//63 37//69
f  37//70 34//64 27//54
f  31//59 38//71 34//63
f  34//64 38//72 31//60
f  37//69 35//65 27//53
f  27//54 35//66 37//70
f  36//67 33//13 15//29
f  15//30 33//14 36//68
f  38//71 31//59 36//67
f  36//68 31//60 38//72
f  35//65 37//69 39//73
f  39//74 37//70 35//66
f  15//29 38//71 36//67
f  36//68 38//72 15//30
f  38//71 15//29 20//39
f  20//40 15//30 38//72

# Mesh 'mesh1_mesh1-geometry' with 56 faces
g mesh1_mesh1-geometry
usemtl material_0_24
f  40//75 41//76 42//77
f  41//76 40//75 43//78
f  42//79 41//80 40//81
f  43//82 40//81 41//80
f  44//83 42//77 41//76
f  41//80 42//79 44//84
f  42//77 45//85 40//75
f  40//81 45//86 42//79
f  46//25 43//78 40//75
f  40//81 43//82 46//26
f  8//15 41//76 43//78
f  43//82 41//80 8//16
f  42//77 44//83 47//87
f  47//88 44//84 42//79
f  41//76 48//89 44//83
f  44//84 48//90 41//80
f  45//85 42//77 49//91
f  49//92 42//79 45//86
f  45//85 46//25 40//75
f  40//81 46//26 45//86
f  43//78 46//25 50//19
f  50//20 46//26 43//82
f  48//89 41//76 8//15
f  8//16 41//80 48//90
f  8//15 43//78 50//19
f  50//20 43//82 8//16
f  44//83 51//93 47//87
f  47//88 51//94 44//84
f  47//87 49//91 42//77
f  42//79 49//92 47//88
f  51//93 44//83 48//89
f  48//90 44//84 51//94
f  52//95 45//85 49//91
f  49//92 45//86 52//96
f  46//25 45//85 19//37
f  19//38 45//86 46//26
f  51//93 53//97 47//87
f  47//88 53//98 51//94
f  49//91 47//87 53//97
f  53//98 47//88 49//92
f  45//85 52//95 54//99
f  54//100 52//96 45//86
f  49//91 55//101 52//95
f  52//96 55//102 49//92
f  54//99 19//37 45//85
f  45//86 19//38 54//100
f  53//97 51//93 56//103
f  56//104 51//94 53//98
f  55//101 49//91 53//97
f  53//98 49//92 55//102
f  19//37 54//99 21//41
f  21//42 54//100 19//38
f  56//103 55//101 53//97
f  53//98 55//102 56//104
f  55//101 56//103 57//105
f  57//106 56//104 55//102

# Mesh 'mesh1_mesh1-geometry' with 56 faces
g mesh1_mesh1-geometry
usemtl material_0_24
f  58//107 59//108 60//109
f  59//108 58//107 61//110
f  60//111 59//112 58//113
f  61//114 58//113 59//112
f  62//115 60//109 59//108
f  59//112 60//111 62//116
f  60//109 63//117 58//107
f  58//113 63//118 60//111
f  64//93 61//110 58//107
f  58//113 61//114 64//94
f  8//15 59//108 61//110
f  61//114 59//112 8//16
f  60//109 62//115 65//119
f  65//120 62//116 60//111
f  59//108 66//61 62//115
f  62//116 66//62 59//112
f  63//117 60//109 67//121
f  67//122 60//111 63//118
f  63//117 64//93 58//107
f  58//113 64//94 63//118
f  61//110 64//93 68//89
f  68//90 64//94 61//114
f  66//61 59//108 8//15
f  8//16 59//112 66//62
f  8//15 61//110 68//89
f  68//90 61//114 8//16
f  62//115 69//55 65//119
f  65//120 69//56 62//116
f  65//119 67//121 60//109
f  60//111 67//122 65//120
f  69//55 62//115 66//61
f  66//62 62//116 69//56
f  70//123 63//117 67//121
f  67//122 63//118 70//124
f  64//93 63//117 56//103
f  56//104 63//118 64//94
f  69//55 71//125 65//119
f  65//120 71//126 69//56
f  67//121 65//119 71//125
f  71//126 65//120 67//122
f  63//117 70//123 72//127
f  72//128 70//124 63//118
f  67//121 73//129 70//123
f  70//124 73//130 67//122
f  72//127 56//103 63//117
f  63//118 56//104 72//128
f  71//125 69//55 35//65
f  35//66 69//56 71//126
f  73//129 67//121 71//125
f  71//126 67//122 73//130
f  56//103 72//127 57//105
f  57//106 72//128 56//104
f  35//65 73//129 71//125
f  71//126 73//130 35//66
f  73//129 35//65 39//73
f  39//74 35//66 73//130

